<svg width="200" height="121" viewBox="0 0 200 121" fill="none" xmlns="http://www.w3.org/2000/svg">
<g clip-path="url(#clip0)">
<path d="M21.1852 73.5829H41.5252L43.7177 65.3214L34.393 34.7991L21.1852 73.5829Z" fill="#DD5D28"/>
<path d="M57.9294 45.0795L68.205 82.3491L73.4617 58.2553L67.1484 6.9067L57.9294 45.0795Z" fill="#FAA61A"/>
<path d="M90.8168 36.4195L95.9414 76.7706L102.809 54.9614L96.998 18.0637L90.8168 36.4195Z" fill="#C1D82F"/>
<path d="M118.21 39.6604L126.319 77.3019L132.104 58.4678L127.112 13.8134L118.21 39.6604Z" fill="#65BBE9"/>
<path d="M150.41 45.2123L153.791 83.146L161.029 64.6839L155.112 34.0022L150.41 45.2123Z" fill="#0087CD"/>
<path d="M183.905 73.8485L174.132 31.0801L161.029 64.6839L162.773 73.8485H183.905Z" fill="#0069B5"/>
<path d="M155.112 34.0022L161.029 64.6839L174.131 31.0801L155.112 34.0022Z" fill="#174A94"/>
<path d="M147.188 9.29747L132.104 58.4678L134.772 82.3491L150.41 45.2123L147.188 9.29747Z" fill="#008ED4"/>
<path d="M127.112 13.8134L132.104 58.4678L147.188 9.29747L127.112 13.8134Z" fill="#007AC2"/>
<path d="M134.772 82.3491L153.791 83.146L150.41 45.2123L134.772 82.3491Z" fill="#0069B5"/>
<path d="M113.904 19.6575L102.809 54.9613L105.979 75.1767L118.21 39.6604L113.904 19.6575Z" fill="#00864A"/>
<path d="M96.998 18.0637L102.809 54.9614L113.904 19.6575L96.998 18.0637Z" fill="#43B649"/>
<path d="M105.979 75.1767L126.319 77.3019L118.21 39.6604L105.979 75.1767Z" fill="#006E45"/>
<path d="M86.1676 0L73.4617 58.2553L76.1297 79.9583L90.8168 36.4195L86.1676 0Z" fill="#FFC40C"/>
<path d="M67.1484 6.9067L73.4617 58.2553L86.1676 0L67.1484 6.9067Z" fill="#F68B1F"/>
<path d="M76.1297 79.9583L95.9414 76.7706L90.8167 36.4195L76.1297 79.9583Z" fill="#DDA827"/>
<path d="M53.4123 28.6893L43.7178 65.3214L48.9216 82.3491L57.9293 45.0795L53.4123 28.6893Z" fill="#F36C21"/>
<path d="M34.3931 34.7991L43.7178 65.3214L53.4123 28.6893L34.3931 34.7991Z" fill="#D3462A"/>
<path d="M48.9216 82.3491H68.205L57.9293 45.0795L48.9216 82.3491Z" fill="#DD5928"/>
<path d="M21.3174 113.429C17.6456 112.34 13.6833 110.773 11.2266 109.604C9.98508 109.046 9.58885 108.913 9.35111 108.913C4.12083 108.515 0 104.424 0 97.6235C0 93.0013 1.63777 88.2995 4.67556 85.1914C7.31711 82.4553 10.9889 81.0209 14.7927 81.0209C22.1098 81.0209 25.6759 86.2806 25.6759 92.3372C25.6759 96.8797 24.0382 101.794 21.106 104.716C20.0758 105.805 18.7022 106.735 17.1965 107.373V107.452C18.8343 107.904 21.0796 108.462 23.3514 108.86L21.3174 113.429ZM9.48319 87.8479C7.31711 90.0527 6.12841 94.4358 6.12841 97.6235C6.12841 101.449 7.84542 104.185 11.7285 104.185C13.4984 104.185 15.004 103.468 16.2192 102.246C18.3324 100.067 19.5739 95.6046 19.5739 92.3372C19.5739 89.2823 18.3852 85.829 14.1852 85.829C12.3097 85.829 10.7247 86.5993 9.48319 87.8479Z" fill="#0069B5"/>
<path d="M46.5971 88.8839L44.0876 102.166C43.6121 104.663 43.3215 106.788 43.0574 108.568H37.9856L38.3554 105.354H38.2762C36.2686 107.93 33.8648 109.02 31.5138 109.02C28.3967 109.02 26.5212 107.24 26.5212 103.521C26.5212 102.432 26.6533 101.263 26.9175 99.908L28.9515 88.937H34.7101L32.7553 99.483C32.5968 100.36 32.4647 101.342 32.4647 102.06C32.4647 103.335 32.9402 104.344 34.4195 104.344C36.3743 104.344 38.3818 101.98 39.1479 98.0219L40.8649 88.937H46.5971V88.8839Z" fill="#0069B5"/>
<path d="M62.5521 107.452C60.2803 108.621 57.4275 108.993 55.2614 108.993C49.6613 108.993 46.782 105.805 46.782 100.705C46.782 94.7014 51.1141 88.4854 58.1935 88.4854C62.1558 88.4854 64.9823 90.6902 64.9823 94.3561C64.9823 99.3767 60.1483 101.183 52.3028 100.997C52.3028 101.555 52.5142 102.458 52.9104 103.016C53.6764 104.025 54.9972 104.557 56.6614 104.557C58.7747 104.557 60.5709 104.079 62.1294 103.308L62.5521 107.452ZM57.4803 92.6825C54.8123 92.6825 53.2802 94.8874 52.884 96.7469C57.3746 96.8 59.5935 96.1359 59.5935 94.3827C59.5935 93.3732 58.8011 92.6825 57.4803 92.6825Z" fill="#0069B5"/>
<path d="M81.2015 107.452C78.9298 108.621 76.0769 108.993 73.9108 108.993C68.3107 108.993 65.4314 105.805 65.4314 100.705C65.4314 94.7014 69.7636 88.4854 76.8429 88.4854C80.8053 88.4854 83.6317 90.6902 83.6317 94.3561C83.6317 99.3767 78.7977 101.183 70.9523 100.997C70.9523 101.555 71.1636 102.458 71.5598 103.016C72.3259 104.025 73.6466 104.557 75.3108 104.557C77.4241 104.557 79.2203 104.079 80.7788 103.308L81.2015 107.452ZM76.1297 92.6825C73.4617 92.6825 71.9296 94.8874 71.5334 96.7469C76.024 96.8 78.243 96.1359 78.243 94.3827C78.243 93.3732 77.4505 92.6825 76.1297 92.6825Z" fill="#0069B5"/>
<path d="M83.3147 108.568L85.7978 95.2858C86.2732 92.7888 86.5902 90.6105 86.828 88.8838H91.9526L91.5564 92.1512H91.6356C93.4847 89.5745 95.9149 88.4588 98.5036 88.4588C101.7 88.4588 103.496 90.4246 103.496 93.7982C103.496 94.6748 103.338 96.1624 103.179 97.1453L101.013 108.568H95.2545L97.2885 97.6766C97.4206 96.9859 97.4999 96.189 97.4999 95.4718C97.4999 94.117 97.0244 93.1341 95.5715 93.1341C93.696 93.1341 91.5035 95.4983 90.6846 99.8549L89.0469 108.595H83.3147V108.568Z" fill="#0069B5"/>
<path d="M105.002 103.388C106.111 103.946 108.251 104.743 110.127 104.743C111.764 104.743 112.61 103.946 112.61 102.963C112.61 102.007 111.976 101.316 110.179 100.439C107.908 99.3236 106.032 97.6766 106.032 95.2061C106.032 91.1418 109.598 88.4588 114.644 88.4588C116.915 88.4588 118.712 88.9104 119.689 89.4683L118.342 93.5592C117.496 93.1607 116.149 92.6825 114.432 92.6825C112.9 92.6825 111.87 93.3732 111.87 94.4092C111.87 95.2061 112.662 95.8968 114.274 96.6672C116.387 97.7563 118.632 99.3236 118.632 102.06C118.632 106.576 114.829 108.966 109.677 108.966C107.194 108.966 104.843 108.329 103.681 107.426L105.002 103.388Z" fill="#0069B5"/>
<path d="M130.44 83.3851L129.41 88.8839H133.557L132.712 93.267H128.565L127.244 99.9346C127.085 100.732 126.927 101.741 126.927 102.432C126.927 103.388 127.323 104.079 128.565 104.079C129.093 104.079 129.648 104.079 130.176 103.999L129.489 108.541C128.776 108.834 127.323 108.993 126.081 108.993C122.647 108.993 121.01 107.213 121.01 104.769C121.01 103.68 121.142 102.591 121.406 101.103L122.938 93.267H120.455L121.247 88.8839H123.757L124.549 84.7399L130.44 83.3851Z" fill="#0069B5"/>
<path d="M152.154 96.5344C152.154 103.733 147.267 108.993 140.478 108.993C135.512 108.993 132.21 105.726 132.21 100.864C132.21 94.0373 136.938 88.4323 143.886 88.4323C149.116 88.4588 152.154 92.0716 152.154 96.5344ZM138.153 100.758C138.153 103.043 139.263 104.583 141.27 104.583C144.44 104.583 146.184 99.9611 146.184 96.5875C146.184 94.7811 145.418 92.8419 143.093 92.8419C139.791 92.8419 138.127 97.7032 138.153 100.758Z" fill="#0069B5"/>
<path d="M159.312 88.8839L159.365 97.1985C159.365 99.4564 159.286 101.289 159.154 103.468H159.233C159.92 101.369 160.792 99.4033 161.637 97.4375L165.467 88.8573H170.196L170.671 97.1453C170.75 99.4299 170.83 101.369 170.724 103.468H170.856C171.49 101.289 172.177 99.3767 173.022 97.0656L176.35 88.8573H182.162L172.652 108.515H167.211L166.656 101.688C166.524 99.6424 166.497 97.7563 166.497 95.3655H166.418C165.388 98.1282 164.886 99.5892 164.094 101.396L160.765 108.515H155.324L153.474 88.8573H159.312V88.8839Z" fill="#0069B5"/>
<path d="M179.732 108.568L182.215 95.2858C182.69 92.7888 183.007 90.6105 183.245 88.8838H188.369L187.973 92.1512H188.052C189.902 89.5745 192.332 88.4588 194.921 88.4588C198.117 88.4588 199.913 90.4246 199.913 93.7982C199.913 94.6748 199.755 96.1624 199.596 97.1453L197.43 108.568H191.671L193.705 97.6766C193.837 96.9859 193.917 96.189 193.917 95.4718C193.917 94.117 193.441 93.1341 191.988 93.1341C190.113 93.1341 187.92 95.4983 187.101 99.8549L185.464 108.595H179.732V108.568Z" fill="#0069B5"/>
<path d="M103.232 114.095L102.73 116.752H105.187L105.689 114.095H107.142L105.847 120.896H104.394L104.923 118.053H102.492L101.938 120.896H100.485L101.779 114.095H103.232Z" fill="#0069B5"/>
<path d="M113.904 116.803C113.904 118.051 113.481 119.247 112.689 120.017C112.055 120.628 111.21 121 110.179 121C108.436 121 107.432 119.751 107.432 118.158C107.432 116.936 107.881 115.714 108.674 114.943C109.308 114.332 110.179 113.987 111.13 113.987C112.979 113.96 113.904 115.182 113.904 116.803ZM109.836 115.687C109.281 116.218 108.991 117.281 108.991 118.105C108.991 119.061 109.413 119.778 110.417 119.778C110.84 119.778 111.236 119.592 111.553 119.273C112.081 118.742 112.372 117.626 112.372 116.829C112.372 115.979 112.081 115.156 110.998 115.156C110.549 115.182 110.153 115.368 109.836 115.687Z" fill="#0069B5"/>
<path d="M119.9 120.894L120.323 118.078C120.429 117.334 120.587 116.404 120.772 115.422H120.746C120.376 116.298 119.953 117.228 119.583 117.972L118.21 120.761H117.074L116.836 117.998C116.783 117.254 116.73 116.325 116.678 115.395H116.651C116.466 116.298 116.255 117.308 116.096 118.051L115.436 120.867H114.115L115.806 114.067H117.734L117.946 116.643C117.998 117.281 118.051 118.051 118.078 118.822H118.13C118.395 118.078 118.764 117.281 119.055 116.643L120.297 114.067H122.251L121.327 120.867H119.9V120.894Z" fill="#0069B5"/>
<path d="M126.874 117.998H124.47L124.153 119.645H126.848L126.61 120.894H122.463L123.757 114.093H127.772L127.534 115.342H124.999L124.708 116.803H127.112L126.874 117.998Z" fill="#0069B5"/>
<path d="M136.252 116.803C136.252 118.051 135.829 119.247 135.036 120.017C134.402 120.628 133.557 121 132.527 121C130.784 121 129.78 119.751 129.78 118.158C129.78 116.936 130.229 115.714 131.021 114.943C131.655 114.332 132.527 113.987 133.478 113.987C135.301 113.96 136.252 115.182 136.252 116.803ZM132.184 115.687C131.629 116.218 131.338 117.281 131.338 118.105C131.338 119.061 131.761 119.778 132.765 119.778C133.187 119.778 133.584 119.592 133.901 119.273C134.429 118.742 134.719 117.626 134.719 116.829C134.719 115.979 134.429 115.156 133.346 115.156C132.897 115.182 132.501 115.368 132.184 115.687Z" fill="#0069B5"/>
<path d="M137.889 114.093H141.852L141.614 115.342H139.104L138.787 116.936H141.138L140.901 118.158H138.55L138.048 120.894H136.595L137.889 114.093Z" fill="#0069B5"/>
<path d="M145.444 119.114L144.652 120.867H143.12L146.422 114.067H148.271L149.063 120.867H147.557L147.425 119.114H145.444ZM147.32 117.998L147.188 116.537C147.161 116.165 147.108 115.607 147.082 115.209H147.056C146.897 115.634 146.686 116.139 146.501 116.537L145.84 117.998H147.32Z" fill="#0069B5"/>
<path d="M151.044 114.173C151.625 114.067 152.259 114.014 152.92 114.014C153.976 114.014 154.822 114.253 155.376 114.757C155.931 115.209 156.248 115.9 156.275 116.883C156.275 118.184 155.72 119.326 154.875 120.017C154.082 120.655 153.105 120.92 151.625 120.92C150.807 120.92 150.12 120.867 149.776 120.787L151.044 114.173ZM151.441 119.698C151.599 119.725 151.81 119.751 152.074 119.751C152.867 119.751 153.554 119.459 154.003 118.955C154.452 118.423 154.716 117.733 154.716 116.909C154.716 115.847 154.135 115.209 152.92 115.209C152.656 115.209 152.471 115.209 152.312 115.262L151.441 119.698Z" fill="#0069B5"/>
<path d="M157.965 120.894L157.12 114.093H158.626L158.916 117.334C158.995 118.051 159.048 118.715 159.075 119.433H159.101C159.339 118.769 159.682 118.051 159.999 117.334L161.505 114.093H163.116L159.629 120.894H157.965Z" fill="#0069B5"/>
<path d="M167.026 117.998H164.622L164.305 119.645H166.999L166.762 120.894H162.614L163.909 114.093H167.924L167.686 115.342H165.15L164.86 116.803H167.263L167.026 117.998Z" fill="#0069B5"/>
<path d="M167.818 120.894L169.113 114.093H170.803L171.701 116.697C171.965 117.573 172.15 118.264 172.309 119.008H172.335C172.362 118.317 172.467 117.573 172.652 116.564L173.101 114.093H174.448L173.181 120.894H171.675L170.724 118.184C170.433 117.254 170.248 116.643 170.063 115.82H170.037C169.958 116.484 169.799 117.44 169.588 118.503L169.139 120.894H167.818Z" fill="#0069B5"/>
<path d="M176.773 115.342H174.977L175.215 114.067H180.233L179.996 115.342H178.199L177.169 120.867H175.716L176.773 115.342Z" fill="#0069B5"/>
<path d="M182.479 114.093L181.739 117.998C181.686 118.237 181.66 118.503 181.66 118.795C181.66 119.353 182.003 119.751 182.637 119.751C183.377 119.751 183.879 119.247 184.143 117.998L184.883 114.067H186.335L185.596 117.919C185.2 119.964 184.301 120.973 182.479 120.973C181.079 120.973 180.233 120.256 180.233 118.795C180.233 118.503 180.286 118.158 180.339 117.839L181.052 114.04H182.479V114.093Z" fill="#0069B5"/>
<path d="M187.63 114.226C188.079 114.12 188.766 114.04 189.426 114.04C190.06 114.04 190.72 114.146 191.196 114.439C191.645 114.704 191.936 115.129 191.936 115.767C191.936 116.776 191.275 117.414 190.403 117.679V117.733C190.8 117.892 190.985 118.37 191.037 118.981C191.117 119.725 191.17 120.628 191.302 120.92H189.822C189.77 120.734 189.69 120.15 189.611 119.326C189.558 118.503 189.268 118.237 188.686 118.237H188.237L187.736 120.92H186.309L187.63 114.226ZM188.502 117.122H189.109C189.902 117.122 190.456 116.643 190.456 115.979C190.456 115.422 190.007 115.182 189.426 115.182C189.162 115.182 188.977 115.209 188.871 115.236L188.502 117.122Z" fill="#0069B5"/>
<path d="M196.611 117.998H194.207L193.89 119.645H196.585L196.347 120.894H192.2L193.494 114.093H197.509L197.272 115.342H194.736L194.445 116.803H196.849L196.611 117.998Z" fill="#0069B5"/>
</g>
<defs>
<clipPath id="clip0">
<rect width="199.913" height="121" fill="white"/>
</clipPath>
</defs>
</svg>
