<svg width="84" height="64" viewBox="0 0 84 64" fill="none" xmlns="http://www.w3.org/2000/svg">
<path d="M48.6 33.1H46.5V35.6H48.6V33.1Z" fill="black"/>
<path d="M45.6 49.6H43.5V52.1H45.6V49.6Z" fill="black"/>
<path d="M45.6 53.7H43.5V56.2H45.6V53.7Z" fill="black"/>
<path d="M48.6 41.3H46.5V43.8H48.6V41.3Z" fill="black"/>
<path d="M48.6 49.6H46.5V52.1H48.6V49.6Z" fill="black"/>
<path d="M48.6 45.5H46.5V48H48.6V45.5Z" fill="black"/>
<path d="M42.7 53.7H40.6V56.2H42.7V53.7Z" fill="black"/>
<path d="M42.7 45.5H40.6V48H42.7V45.5Z" fill="black"/>
<path d="M45.6 33.1H43.5V35.6H45.6V33.1Z" fill="black"/>
<path d="M45.6 41.3H43.5V43.8H45.6V41.3Z" fill="black"/>
<path d="M51.5 37.2H49.4V39.7H51.5V37.2Z" fill="black"/>
<path d="M75.2 50.7H57V52.8H75.2V50.7Z" fill="black"/>
<path d="M75.2 47H57V49.1H75.2V47Z" fill="black"/>
<path d="M55.3 29.1H33.9V54.4H29.6V56.5H36V31.2H53.2V56.5H60.7V54.4H55.3V29.1Z" fill="black"/>
<path d="M48.8 2.7L70.4 7.4V10.7H56V12.9H70.4V13.6H53.4V15.7H70.4V19.3H53.4V21.4H70.4V22.2H56V24.3H70.4V27.9H60.1V30H70.4V30.7H58.1V32.9H70.4V33.6H61.7V35.7H70.4V37.9H72.5V5.7L46.7 0V27.9H48.8V2.7Z" fill="black"/>
<path d="M51.5 49.6H49.4V52.1H51.5V49.6Z" fill="black"/>
<path d="M51.5 41.3H49.4V43.8H51.5V41.3Z" fill="black"/>
<path d="M42.7 37.2H40.6V39.7H42.7V37.2Z" fill="black"/>
<path d="M51.5 33.1H49.4V35.6H51.5V33.1Z" fill="black"/>
<path d="M51.5 53.7H49.4V56.2H51.5V53.7Z" fill="black"/>
<path d="M75.2 43.3H57V45.4H75.2V43.3Z" fill="black"/>
<path d="M31.7 46.3H24.2V48.4H31.7V46.3Z" fill="black"/>
<path d="M31.7 50H24.2V52.1H31.7V50Z" fill="black"/>
<path d="M31.7 42.6H24.2V44.7H31.7V42.6Z" fill="black"/>
<path d="M31.7 38.9H24.2V41H31.7V38.9Z" fill="black"/>
<path d="M31.7 35.2H24.2V37.3H31.7V35.2Z" fill="black"/>
<path d="M31.7 31.5H24.2V33.6H31.7V31.5Z" fill="black"/>
<path d="M11.5 25.7H9.39999V53.8H11.5V25.7Z" fill="black"/>
<path d="M8.4 25.7H6.3V53.8H8.4V25.7Z" fill="black"/>
<path d="M81.1 54.4V42.7H78.5V39.1H56.8V41.3H76.4V44.8H78.9V56.5H81.9V61.7H2.1V56.5H5.1V24H8.4V22H14.3V24H15.8V56.5H22.5V11.3H25.7V9.1H38.8V11.3H42V27.9H44.1V9.2H40.9V7H23.6V9.2H20.4V54.4H18V21.9H16.5V19.9H6.2V21.9H3V54.4H0V63.8H84V54.4H81.1Z" fill="black"/>
<path d="M14.7 25.7H12.6V53.8H14.7V25.7Z" fill="black"/>
<path d="M31.7 27.8H24.2V29.9H31.7V27.8Z" fill="black"/>
<path d="M39.7 49.6H37.6V52.1H39.7V49.6Z" fill="black"/>
<path d="M39.7 37.2H37.6V39.7H39.7V37.2Z" fill="black"/>
<path d="M39.7 53.7H37.6V56.2H39.7V53.7Z" fill="black"/>
<path d="M39.7 33.1H37.6V35.6H39.7V33.1Z" fill="black"/>
<path d="M39.7 45.5H37.6V48H39.7V45.5Z" fill="black"/>
<path d="M39.7 41.3H37.6V43.8H39.7V41.3Z" fill="black"/>
<path d="M40.1 24.1H24.2V26.2H40.1V24.1Z" fill="black"/>
<path d="M40.1 20.4H24.2V22.5H40.1V20.4Z" fill="black"/>
<path d="M37.5 13H24.2V15.1H37.5V13Z" fill="black"/>
<path d="M40.1 16.7H31V18.8H40.1V16.7Z" fill="black"/>
</svg>
