<svg width="51" height="47" viewBox="0 0 51 47" fill="none" xmlns="http://www.w3.org/2000/svg">
<path d="M46.2 21.3H44.1V44.1H29.7V32.3H21V44.1H6.60001V21.3H4.50001V44.1H1.20001V46.2H49.6V44.1H46.3V21.3H46.2ZM27.5 44.1H23.1V34.4H27.5V44.1Z" fill="black"/>
<path d="M9.60001 42.1H18.3V32.3H9.60001V42.1ZM11.8 34.4H16.2V40H11.8V34.4Z" fill="black"/>
<path d="M47 5.1H19.2V0H11.3V5.1H3.60001L0 16V19.4H50.6V16L47 5.1ZM48.5 17.3H2.10001V16.4L5.10001 7.3H13.4V2.2H17V7.3H45.4L48.4 16.4V17.3H48.5Z" fill="black"/>
<path d="M41.1 20.9H32.4V30.7H41.1V20.9ZM39 28.6H34.6V23H39V28.6Z" fill="black"/>
<path d="M32.4 42.1H41.1V32.3H32.4V42.1V42.1ZM34.5 34.4H38.9V40H34.5V34.4Z" fill="black"/>
<path d="M18.3 20.9H9.60001V30.7H18.3V20.9ZM16.2 28.6H11.8V23H16.2V28.6Z" fill="black"/>
<path d="M29.6 20.9H20.9V30.7H29.6V20.9ZM27.5 28.6H23.1V23H27.5V28.6Z" fill="black"/>
</svg>
