<svg width="40" height="39" viewBox="0 0 40 39" fill="none" xmlns="http://www.w3.org/2000/svg">
<path d="M40 9.9V3.7H31.9V0H8.09999V3.8H0V10H1.5V33.6H0.300003V38.8H39.6V33.6H38.4V9.9H40ZM10.1 2.1H29.7V3.7H10.1V2.1ZM22.5 36.6H17.3V24.8H22.5V36.6ZM37.8 7.8H36.3V35.7H37.5V36.6H24.7V22.7H15.2V36.6H2.39999V35.7H3.59999V7.8H2.09999V5.9H37.9V7.8H37.8Z" fill="black"/>
<path d="M33.3 9.20001H26.7V18.5H33.3V9.20001ZM31.2 16.3H28.9V11.2H31.2V16.3Z" fill="black"/>
<path d="M13.2 9.20001H6.59998V18.5H13.2V9.20001ZM11 16.3H8.69998V11.2H11V16.3Z" fill="black"/>
<path d="M13.2 22.7H6.59998V32H13.2V22.7ZM11 29.9H8.69998V24.8H11V29.9Z" fill="black"/>
<path d="M23.2 9.20001H16.6V18.5H23.2V9.20001ZM21.1 16.3H18.8V11.2H21.1V16.3Z" fill="black"/>
<path d="M33.3 22.7H26.7V32H33.3V22.7ZM31.2 29.9H28.9V24.8H31.2V29.9Z" fill="black"/>
</svg>
