<svg width="68" height="35" viewBox="0 0 68 35" fill="none" xmlns="http://www.w3.org/2000/svg">
<path d="M22.5 2.7L41.6 16H66.4V3.7H27.8L22.5 0L16.8 4V1.10001H8.39999V9.8L0.799988 15.1L1.99999 16.8L22.5 2.7ZM64.3 5.9V13.8H42.3L30.9 5.8H64.3V5.9ZM10.5 3.3H14.7V5.5L10.5 8.4V3.3Z" fill="black"/>
<path d="M64.1 32.3V16.8H62V32.3H60.1V18.9H40.7V32.3H37.2V18.8H28.2V32.3H5.8V16.8H3.6V32.3H0V34.4H67.7V32.3H64.1ZM35.1 32.3H30.3V20.9H35V32.3H35.1ZM57.9 22.2H44.2V24.3H57.9V25.6H44.2V27.7H57.9V29H44.2V31.1H57.9V32.2H42.9V21H57.9V22.2V22.2Z" fill="black"/>
<path d="M8.29999 28.2H25.9V18.9H8.29999V28.2ZM10.4 21H23.7V26H10.4V21Z" fill="black"/>
</svg>
